<?xml version="1.0" encoding="UTF-8" standalone="no"?>
<!-- Created with Inkscape (http://www.inkscape.org/) -->

<svg
   xmlns:dc="http://purl.org/dc/elements/1.1/"
   xmlns:cc="http://creativecommons.org/ns#"
   xmlns:rdf="http://www.w3.org/1999/02/22-rdf-syntax-ns#"
   xmlns:svg="http://www.w3.org/2000/svg"
   xmlns="http://www.w3.org/2000/svg"
   xmlns:sodipodi="http://sodipodi.sourceforge.net/DTD/sodipodi-0.dtd"
   xmlns:inkscape="http://www.inkscape.org/namespaces/inkscape"
   width="1024"
   height="500"
   viewBox="0 0 1024 500.00001"
   id="svg2"
   version="1.1"
   inkscape:version="0.91 r13725"
   sodipodi:docname="featured-image.svg"
   inkscape:export-filename="/media/truecrypt6/Daten/Bilder/04 Bearbeitung/float_android/Modular_Remote/featured image 1/featured-image.png"
   inkscape:export-xdpi="90"
   inkscape:export-ydpi="90">
  <defs
     id="defs4">
    <filter
       inkscape:collect="always"
       style="color-interpolation-filters:sRGB"
       id="filter4454"
       x="-0.19050001"
       width="1.381"
       y="-0.19050001"
       height="1.381">
      <feGaussianBlur
         inkscape:collect="always"
         stdDeviation="2.54"
         id="feGaussianBlur4456" />
    </filter>
    <filter
       inkscape:collect="always"
       style="color-interpolation-filters:sRGB"
       id="filter4458"
       x="-0.19050001"
       width="1.381"
       y="-0.19050001"
       height="1.381">
      <feGaussianBlur
         inkscape:collect="always"
         stdDeviation="2.54"
         id="feGaussianBlur4460" />
    </filter>
    <filter
       inkscape:collect="always"
       style="color-interpolation-filters:sRGB"
       id="filter4462"
       x="-0.19050001"
       width="1.381"
       y="-0.19050001"
       height="1.381">
      <feGaussianBlur
         inkscape:collect="always"
         stdDeviation="2.54"
         id="feGaussianBlur4464" />
    </filter>
    <filter
       inkscape:collect="always"
       style="color-interpolation-filters:sRGB"
       id="filter4466"
       x="-0.19050001"
       width="1.381"
       y="-0.19050001"
       height="1.381">
      <feGaussianBlur
         inkscape:collect="always"
         stdDeviation="2.54"
         id="feGaussianBlur4468" />
    </filter>
    <filter
       inkscape:collect="always"
       style="color-interpolation-filters:sRGB"
       id="filter4407"
       x="-0.048"
       width="1.096"
       y="-0.048"
       height="1.096">
      <feGaussianBlur
         inkscape:collect="always"
         stdDeviation="1.4"
         id="feGaussianBlur4409" />
    </filter>
    <filter
       inkscape:collect="always"
       style="color-interpolation-filters:sRGB"
       id="filter4426"
       x="-0.048"
       width="1.096"
       y="-0.048"
       height="1.096">
      <feGaussianBlur
         inkscape:collect="always"
         stdDeviation="1.4"
         id="feGaussianBlur4428" />
    </filter>
    <filter
       inkscape:collect="always"
       style="color-interpolation-filters:sRGB"
       id="filter6909"
       x="-0.456"
       width="1.912"
       y="-0.33163636"
       height="1.6632727">
      <feGaussianBlur
         inkscape:collect="always"
         stdDeviation="24.32"
         id="feGaussianBlur6911" />
    </filter>
  </defs>
  <sodipodi:namedview
     id="base"
     pagecolor="#ffffff"
     bordercolor="#666666"
     borderopacity="1.0"
     inkscape:pageopacity="0.0"
     inkscape:pageshadow="2"
     inkscape:zoom="0.7"
     inkscape:cx="768.1449"
     inkscape:cy="-10.390347"
     inkscape:document-units="px"
     inkscape:current-layer="layer1"
     showgrid="false"
     units="px"
     inkscape:window-width="1920"
     inkscape:window-height="1031"
     inkscape:window-x="0"
     inkscape:window-y="25"
     inkscape:window-maximized="1" />
  <metadata
     id="metadata7">
    <rdf:RDF>
      <cc:Work
         rdf:about="">
        <dc:format>image/svg+xml</dc:format>
        <dc:type
           rdf:resource="http://purl.org/dc/dcmitype/StillImage" />
        <dc:title></dc:title>
      </cc:Work>
    </rdf:RDF>
  </metadata>
  <g
     inkscape:label="Ebene 1"
     inkscape:groupmode="layer"
     id="layer1"
     transform="translate(0,-552.36216)">
    <rect
       style="fill:#303030;fill-opacity:1;stroke:none;stroke-opacity:1"
       id="rect4192"
       width="1024"
       height="500"
       x="0"
       y="552.36218" />
    <g
       id="g6958"
       transform="translate(204.538,-603.63199)">
      <g
         transform="translate(-257.632,603.63198)"
         id="g6919">
        <rect
           style="fill:#ffffff;fill-opacity:1;stroke:none;stroke-opacity:1;filter:url(#filter6909)"
           id="rect4151-8"
           width="128"
           height="176"
           x="316"
           y="714.36218"
           rx="12"
           ry="12" />
        <g
           id="g4993"
           transform="translate(-914.28571,129.99998)">
          <rect
             ry="12"
             rx="12"
             y="584.36218"
             x="1230.2858"
             height="176"
             width="128"
             id="rect4151"
             style="fill:#313031;fill-opacity:1;stroke:none;stroke-opacity:1" />
          <rect
             ry="8"
             rx="8"
             y="605.36218"
             x="1316.2858"
             height="32"
             width="32"
             id="rect4158-7-8"
             style="fill:#000000;fill-opacity:0.2;stroke:none;stroke-opacity:1;filter:url(#filter4454)" />
          <rect
             ry="8"
             rx="8"
             y="643.36218"
             x="1316.2858"
             height="32"
             width="32"
             id="rect4158-7-7-2"
             style="fill:#000000;fill-opacity:0.2;stroke:none;stroke-opacity:1;filter:url(#filter4458)" />
          <rect
             ry="8"
             rx="8"
             y="681.36218"
             x="1240.2858"
             height="32"
             width="32"
             id="rect4158-5-2"
             style="fill:#000000;fill-opacity:0.2;stroke:none;stroke-opacity:1;filter:url(#filter4462)" />
          <rect
             ry="8"
             rx="8"
             y="719.36218"
             x="1240.2858"
             height="32"
             width="32"
             id="rect4158-9-5"
             style="fill:#000000;fill-opacity:0.2;stroke:none;stroke-opacity:1;filter:url(#filter4466)" />
          <rect
             ry="8"
             rx="8"
             y="601.36218"
             x="1316.2858"
             height="32"
             width="32"
             id="rect4158-7"
             style="fill:#5a595a;fill-opacity:0.94117647;stroke:none;stroke-opacity:1" />
          <rect
             ry="8"
             rx="8"
             y="639.36218"
             x="1316.2858"
             height="32"
             width="32"
             id="rect4158-7-7"
             style="fill:#5a595a;fill-opacity:0.94117647;stroke:none;stroke-opacity:1" />
          <rect
             ry="8"
             rx="8"
             y="677.36218"
             x="1240.2858"
             height="32"
             width="32"
             id="rect4158-5"
             style="fill:#5a595a;fill-opacity:0.94117647;stroke:none;stroke-opacity:1" />
          <rect
             ry="8"
             rx="8"
             y="715.36218"
             x="1240.2858"
             height="32"
             width="32"
             id="rect4158-9"
             style="fill:#5a595a;fill-opacity:0.94117647;stroke:none;stroke-opacity:1" />
          <rect
             y="653.36218"
             x="1324.2858"
             height="4"
             width="16"
             id="rect4235-8-8"
             style="fill:#fafafa;fill-opacity:1;stroke:none;stroke-opacity:1" />
          <rect
             y="615.36218"
             x="1324.2858"
             height="4"
             width="16"
             id="rect4235-8-8-0"
             style="fill:#fafafa;fill-opacity:1;stroke:none;stroke-opacity:1" />
          <rect
             transform="matrix(0,1,-1,0,0,0)"
             y="-1334.2858"
             x="609.36218"
             height="4"
             width="16"
             id="rect4235-8-8-0-6"
             style="fill:#fafafa;fill-opacity:1;stroke:none;stroke-opacity:1" />
          <rect
             ry="7.7777777"
             rx="7.7777777"
             y="605.36218"
             x="1240.2858"
             height="70"
             width="70"
             id="rect4158-3-7-9-0"
             style="fill:#000000;fill-opacity:0.2;stroke:none;stroke-opacity:1;filter:url(#filter4407)" />
          <rect
             ry="7.7777777"
             rx="7.7777777"
             y="601.36218"
             x="1240.2858"
             height="70"
             width="70"
             id="rect4158-3-7-9"
             style="fill:#5a595a;fill-opacity:0.94117647;stroke:none;stroke-opacity:1" />
          <path
             id="path_M-1"
             d="m 1266.0775,619.36215 c 2.3077,6.13187 6.9231,18.39561 9.2308,24.52747 2.3022,-6.13186 6.9066,-18.3956 9.2088,-24.52747 1.7967,0 5.3901,0 7.1868,0 0,8 0,24 0,32 -1.3846,0 -4.1539,0 -5.5385,0 0,-2.63736 0,-7.91209 0,-10.54945 0.1374,-3.52747 0.4121,-10.58242 0.5495,-14.10989 -2.3627,6.16483 -7.0879,18.49451 -9.4506,24.65934 -0.9945,0 -2.9835,0 -3.978,0 -2.3571,-6.15934 -7.0714,-18.47802 -9.4286,-24.63736 0.1374,3.52197 0.4121,10.56593 0.5495,14.08791 0,2.63736 0,7.91209 0,10.54945 -1.3846,0 -4.1539,0 -5.5385,0 0,-8 0,-24 0,-32 1.8022,0 5.4066,0 7.2088,0 z"
             style="fill:#fafafa;fill-opacity:1;stroke-width:0px"
             inkscape:connector-curvature="0" />
          <rect
             ry="7.7777777"
             rx="7.7777777"
             y="681.36218"
             x="1278.2858"
             height="70"
             width="70"
             id="rect4158-3-7-9-2-7"
             style="fill:#000000;fill-opacity:0.2;stroke:none;stroke-opacity:1;filter:url(#filter4426)" />
          <rect
             ry="7.7777777"
             rx="7.7777777"
             y="677.36218"
             x="1278.2858"
             height="70"
             width="70"
             id="rect4158-3-7-9-2"
             style="fill:#5a595a;fill-opacity:0.94117647;stroke:none;stroke-opacity:1" />
          <g
             style="fill:#fafafa;fill-opacity:1"
             id="R-6"
             transform="matrix(0.45010989,0,0,0.45010989,1297.967,701.03072)">
            <path
               id="path_R-9"
               d="m 33.349609,31.107422 c -3.442383,0 -10.327148,0 -13.769531,0 0,6.848144 0,20.544434 0,27.392578 -3.088379,0 -9.265137,0 -12.353516,0 0,-17.773438 0,-53.3203125 0,-71.09375 6.25,0 18.75,0 25,0 q 12.304688,0 18.994141,5.517578 6.689453,5.517578 6.689453,15.966797 0,7.128906 -3.442382,11.938476 -3.442383,4.809571 -9.594727,7.397461 c 5.322266,9.879557 11.975098,22.229004 15.966797,29.638672 0,0.158692 0,0.476075 0,0.634766 -3.308106,0 -9.924316,0 -13.232422,0 C 44.042969,51.651856 36.914062,37.955567 33.349609,31.107422 Z m -13.769531,-9.91211 c 3.173828,0 9.521485,0 12.695313,0 q 6.25,0 9.765625,-3.149414 3.515625,-3.149414 3.515625,-8.618164 0,-5.71289 -3.247071,-8.83789 -3.24707,-3.125 -9.692382,-3.222656 c -4.345703,0 -9.777832,0 -13.03711,0 0,5.957031 0,17.871093 0,23.828124 z"
               style="fill:#fafafa;fill-opacity:1;stroke-width:0px"
               inkscape:connector-curvature="0" />
          </g>
          <path
             id="rect4158-9-9-0"
             d="m 1240.2857,738.36212 0,1 c 0,4.432 3.568,8 8,8 l 16,0 c 4.432,0 8,-3.568 8,-8 l 0,-1 c 0,4.432 -3.568,8 -8,8 l -16,0 c -4.432,0 -8,-3.568 -8,-8 z"
             style="fill:#000000;fill-opacity:0.2;stroke:none;stroke-opacity:1"
             inkscape:connector-curvature="0" />
          <path
             id="rect4158-9-9-2"
             d="m 1272.2857,724.36212 0,-1 c 0,-4.432 -3.568,-7.99997 -8,-7.99997 l -16,0 c -4.432,0 -8,3.56797 -8,7.99997 l 0,1 c 0,-4.432 3.568,-7.99997 8,-7.99997 l 16,0 c 4.432,0 8,3.56797 8,7.99997 z"
             style="fill:#ffffff;fill-opacity:0.2;stroke:none;stroke-opacity:1"
             inkscape:connector-curvature="0" />
          <path
             id="rect4158-9-9-0-2"
             d="m 1316.2857,624.36215 0,1 c 0,4.432 3.568,8 8,8 l 16,0 c 4.432,0 8,-3.568 8,-8 l 0,-1 c 0,4.432 -3.568,8 -8,8 l -16,0 c -4.432,0 -8,-3.568 -8,-8 z"
             style="fill:#000000;fill-opacity:0.2;stroke:none;stroke-opacity:1"
             inkscape:connector-curvature="0" />
          <path
             id="rect4158-9-9-0-8"
             d="m 1316.2857,662.36215 0,1 c 0,4.432 3.568,8 8,8 l 16,0 c 4.432,0 8,-3.568 8,-8 l 0,-1 c 0,4.432 -3.568,8 -8,8 l -16,0 c -4.432,0 -8,-3.568 -8,-8 z"
             style="fill:#000000;fill-opacity:0.2;stroke:none;stroke-opacity:1"
             inkscape:connector-curvature="0" />
          <path
             id="rect4158-9-9-0-4"
             d="m 1240.2857,700.36215 0,1 c 0,4.432 3.568,8 8,8 l 16,0 c 4.432,0 8,-3.568 8,-8 l 0,-1 c 0,4.432 -3.568,8 -8,8 l -16,0 c -4.432,0 -8,-3.568 -8,-8 z"
             style="fill:#000000;fill-opacity:0.2;stroke:none;stroke-opacity:1"
             inkscape:connector-curvature="0" />
          <path
             id="rect4158-9-9-2-4"
             d="m 1272.2857,686.36215 0,-1 c 0,-4.432 -3.568,-8 -8,-8 l -16,0 c -4.432,0 -8,3.568 -8,8 l 0,1 c 0,-4.432 3.568,-8 8,-8 l 16,0 c 4.432,0 8,3.568 8,8 z"
             style="fill:#ffffff;fill-opacity:0.2;stroke:none;stroke-opacity:1"
             inkscape:connector-curvature="0" />
          <path
             id="rect4158-9-9-2-5"
             d="m 1348.2857,610.36215 0,-1 c 0,-4.432 -3.568,-7.99997 -8,-7.99997 l -16,0 c -4.432,0 -8,3.56797 -8,7.99997 l 0,1 c 0,-4.432 3.568,-7.99997 8,-7.99997 l 16,0 c 4.432,0 8,3.56797 8,7.99997 z"
             style="fill:#ffffff;fill-opacity:0.2;stroke:none;stroke-opacity:1"
             inkscape:connector-curvature="0" />
          <path
             id="rect4158-9-9-2-6"
             d="m 1348.2857,648.36215 0,-1 c 0,-4.432 -3.568,-7.99997 -8,-7.99997 l -16,0 c -4.432,0 -8,3.56797 -8,7.99997 l 0,1 c 0,-4.432 3.568,-7.99997 8,-7.99997 l 16,0 c 4.432,0 8,3.56797 8,7.99997 z"
             style="fill:#ffffff;fill-opacity:0.2;stroke:none;stroke-opacity:1"
             inkscape:connector-curvature="0" />
          <path
             inkscape:connector-curvature="0"
             id="rect4158-3-7-9-2-0"
             d="m 1286.0631,677.36181 c -4.3089,0 -7.7774,3.46845 -7.7774,7.77734 l 0,1 c 0,-4.30889 3.4685,-7.77734 7.7774,-7.77734 l 54.4453,0 c 4.3089,0 7.7773,3.46845 7.7773,7.77734 l 0,-1 c 0,-4.30889 -3.4684,-7.77734 -7.7773,-7.77734 l -54.4453,0 z"
             style="fill:#ffffff;fill-opacity:0.2;stroke:none;stroke-opacity:1" />
          <path
             id="rect4158-3-7-9-2-0-6"
             d="m 1340.5084,747.36212 c 4.3088,0 7.7773,-3.4685 7.7773,-7.7774 l 0,-1 c 0,4.3089 -3.4685,7.7774 -7.7773,7.7774 l -54.4454,0 c -4.3088,0 -7.7773,-3.4685 -7.7773,-7.7774 l 0,1 c 0,4.3089 3.4685,7.7774 7.7773,7.7774 l 54.4454,0 z"
             style="fill:#000000;fill-opacity:0.2;stroke:none;stroke-opacity:1"
             inkscape:connector-curvature="0" />
          <path
             id="rect4158-3-7-9-2-0-6-7"
             d="m 1302.5084,671.36215 c 4.3088,0 7.7773,-3.4685 7.7773,-7.7774 l 0,-1 c 0,4.3089 -3.4685,7.7774 -7.7773,7.7774 l -54.4454,0 c -4.3088,0 -7.7773,-3.4685 -7.7773,-7.7774 l 0,1 c 0,4.3089 3.4685,7.7774 7.7773,7.7774 l 54.4454,0 z"
             style="fill:#000000;fill-opacity:0.2;stroke:none;stroke-opacity:1"
             inkscape:connector-curvature="0" />
          <path
             inkscape:connector-curvature="0"
             id="rect4158-3-7-9-2-0-4"
             d="m 1248.0631,601.36181 c -4.3089,0 -7.7774,3.46845 -7.7774,7.77734 l 0,1 c 0,-4.30889 3.4685,-7.77734 7.7774,-7.77734 l 54.4453,0 c 4.3089,0 7.7773,3.46845 7.7773,7.77734 l 0,-1 c 0,-4.30889 -3.4684,-7.77734 -7.7773,-7.77734 l -54.4453,0 z"
             style="fill:#ffffff;fill-opacity:0.2;stroke:none;stroke-opacity:1" />
          <path
             inkscape:connector-curvature="0"
             id="rect4151-7"
             d="m 1358.2857,597.36215 0,-1 c 0,-6.648 -5.352,-12 -12,-12 l -104,0 c -6.648,0 -12,5.352 -12,12 l 0,1 c 0,-6.648 5.352,-12 12,-12 l 104,0 c 6.648,0 12,5.352 12,12 z"
             style="fill:#ffffff;fill-opacity:0.2;stroke:none;stroke-opacity:1" />
          <path
             inkscape:connector-curvature="0"
             id="rect4151-7-8"
             d="m 1230.2857,747.36212 0,1 c 0,6.648 5.352,12 12,12 l 104,0 c 6.648,0 12,-5.352 12,-12 l 0,-1 c 0,6.648 -5.352,12 -12,12 l -104,0 c -6.648,0 -12,-5.352 -12,-12 z"
             style="fill:#000000;fill-opacity:0.2;stroke:none;stroke-opacity:1" />
          <path
             sodipodi:nodetypes="cccc"
             inkscape:connector-curvature="0"
             id="path4438"
             d="m 1264.2857,698.01915 -16,0 8,-11.3135 z"
             inkscape:transform-center-y="-3.1587072"
             inkscape:transform-center-x="-4.1328311"
             style="fill:#ffffff;fill-opacity:1;stroke:none;stroke-opacity:1" />
          <path
             sodipodi:nodetypes="cccc"
             inkscape:connector-curvature="0"
             id="path4438-4"
             d="m 1264.2857,726.70552 -16,0 8,11.3136 z"
             inkscape:transform-center-y="3.1587097"
             inkscape:transform-center-x="-4.1328311"
             style="fill:#ffffff;fill-opacity:1;stroke:none;stroke-opacity:1" />
        </g>
      </g>
      <text
         sodipodi:linespacing="100%"
         id="text6913"
         y="1395.8184"
         x="240.88443"
         style="font-style:normal;font-weight:normal;font-size:40px;line-height:100%;font-family:Sans;letter-spacing:0px;word-spacing:0px;fill:#ffffff;fill-opacity:1;stroke:none;stroke-width:1px;stroke-linecap:butt;stroke-linejoin:miter;stroke-opacity:1"
         xml:space="preserve"><tspan
           dx="-4"
           style="font-size:80px;line-height:100%;text-align:start;text-anchor:start;fill:#ffffff;fill-opacity:1"
           y="1395.8184"
           x="240.88443"
           id="tspan6915"
           sodipodi:role="line">Modular</tspan><tspan
           id="tspan6917"
           rotate="0 0 0 0 0 0 0"
           style="font-size:80px;line-height:100%;text-align:start;text-anchor:start;fill:#ffffff;fill-opacity:1"
           y="1475.8184"
           x="240.88443"
           sodipodi:role="line">Remote</tspan></text>
    </g>
  </g>
</svg>
