<?xml version="1.0" encoding="UTF-8" standalone="no"?>
<svg
   xmlns:dc="http://purl.org/dc/elements/1.1/"
   xmlns:cc="http://creativecommons.org/ns#"
   xmlns:rdf="http://www.w3.org/1999/02/22-rdf-syntax-ns#"
   xmlns:svg="http://www.w3.org/2000/svg"
   xmlns="http://www.w3.org/2000/svg"
   xmlns:sodipodi="http://sodipodi.sourceforge.net/DTD/sodipodi-0.dtd"
   xmlns:inkscape="http://www.inkscape.org/namespaces/inkscape"
   width="36"
   height="36"
   viewBox="0 0 36 36"
   id="svg2"
   version="1.1"
   inkscape:version="0.91 r13725"
   sodipodi:docname="ic_action_container_edit.svg">
  <metadata
     id="metadata10">
    <rdf:RDF>
      <cc:Work
         rdf:about="">
        <dc:format>image/svg+xml</dc:format>
        <dc:type
           rdf:resource="http://purl.org/dc/dcmitype/StillImage" />
      </cc:Work>
    </rdf:RDF>
  </metadata>
  <defs
     id="defs8" />
  <sodipodi:namedview
     pagecolor="#ffffff"
     bordercolor="#666666"
     borderopacity="1"
     objecttolerance="10"
     gridtolerance="10"
     guidetolerance="10"
     inkscape:pageopacity="0"
     inkscape:pageshadow="2"
     inkscape:window-width="1815"
     inkscape:window-height="964"
     id="namedview6"
     showgrid="true"
     showguides="true"
     inkscape:zoom="13.111111"
     inkscape:cx="5.8908435"
     inkscape:cy="14.027151"
     inkscape:window-x="103"
     inkscape:window-y="62"
     inkscape:window-maximized="0"
     inkscape:current-layer="svg2">
    <inkscape:grid
       type="xygrid"
       id="grid4144" />
  </sodipodi:namedview>
  <path
     d="m 12,29 6,6 6.000001,-6 L 22.589845,27.589844 19,31.169922 l 0,-10.169921 -2,0 0,10.169921 L 13.410156,27.589844 12,29 Z"
     id="path4-7"
     inkscape:connector-curvature="0" />
  <path
     d="M 18 1 L 12 7 L 13.410156 8.4101562 L 17 4.8300781 L 17 11 L 19 11 L 19 4.8300781 L 22.589844 8.4101562 L 24 7 L 18 1 z "
     id="path4-5-4" />
  <path
     d="M 10.990239,9 C 9.8902388,9 9.00977,9.9 9.00977,11 L 9,25 c 0,1.1 0.8902344,2 1.990234,2 L 25,27 c 1.1,0 2,-0.9 2,-2 L 27,11 C 27,9.9 26.1,9 25,9 L 10.990234,9 Z m 0,2 14.009766,0 0,10 -1,0 -3,0 -6.000001,0 -2,0 -2.009765,0 0,-10 z"
     id="path4"
     inkscape:connector-curvature="0" />
  <path
     d="M 7 12 L 1 18 L 7 24 L 8.4101562 22.589844 L 4.8300781 19 L 11 19 L 11 17 L 4.8300781 17 L 8.4101562 13.410156 L 7 12 z "
     id="path4-7-0" />
  <path
     d="M 29 12 L 27.589844 13.410156 L 31.169922 17 L 25 17 L 25 19 L 31.169922 19 L 27.589844 22.589844 L 29 24 L 35 18 L 29 12 z "
     id="path4-5-4-6" />
</svg>
