<?xml version="1.0" encoding="UTF-8" standalone="no"?>
<svg
   xmlns:dc="http://purl.org/dc/elements/1.1/"
   xmlns:cc="http://creativecommons.org/ns#"
   xmlns:rdf="http://www.w3.org/1999/02/22-rdf-syntax-ns#"
   xmlns:svg="http://www.w3.org/2000/svg"
   xmlns="http://www.w3.org/2000/svg"
   xmlns:sodipodi="http://sodipodi.sourceforge.net/DTD/sodipodi-0.dtd"
   xmlns:inkscape="http://www.inkscape.org/namespaces/inkscape"
   width="36"
   height="36"
   viewBox="0 0 36 36"
   id="svg2"
   version="1.1"
   inkscape:version="0.91 r13725"
   sodipodi:docname="ic_action_container_scroll.svg">
  <metadata
     id="metadata10">
    <rdf:RDF>
      <cc:Work
         rdf:about="">
        <dc:format>image/svg+xml</dc:format>
        <dc:type
           rdf:resource="http://purl.org/dc/dcmitype/StillImage" />
      </cc:Work>
    </rdf:RDF>
  </metadata>
  <defs
     id="defs8" />
  <sodipodi:namedview
     pagecolor="#ffffff"
     bordercolor="#666666"
     borderopacity="1"
     objecttolerance="10"
     gridtolerance="10"
     guidetolerance="10"
     inkscape:pageopacity="0"
     inkscape:pageshadow="2"
     inkscape:window-width="1815"
     inkscape:window-height="964"
     id="namedview6"
     showgrid="true"
     showguides="true"
     inkscape:zoom="18.541911"
     inkscape:cx="20.273688"
     inkscape:cy="17.718908"
     inkscape:window-x="103"
     inkscape:window-y="62"
     inkscape:window-maximized="0"
     inkscape:current-layer="svg2">
    <inkscape:grid
       type="xygrid"
       id="grid4144" />
  </sodipodi:namedview>
  <path
     d="m 22,16 6,6 6,-6 L 32.589844,14.589844 29,18.169922 29,8 27,8 27,18.169922 23.410156,14.589844 22,16 Z"
     id="path4-7"
     inkscape:connector-curvature="0" />
  <path
     inkscape:connector-curvature="0"
     d="M 34,8 28,2 22,8 23.410156,9.410156 27,5.830078 27,16 29,16 29,5.830078 32.589844,9.410156 34,8 Z"
     id="path4-5-4" />
  <path
     d="m 4.9902388,2.9999999 c -1.1,0 -1.9804688,0.9 -1.9804688,2 L 3,19 c 0,1.1 0.8902344,2 1.9902344,2 L 19,21 c 1.1,0 2,-0.9 2,-2 L 21,4.9999999 c 0,-1.1 -0.9,-2 -2,-2 l -14.0097656,0 z m 0,2 14.0097662,0 0,10.0000001 -1,0 -3,0 -6.0000006,0 -2,0 -2.0097656,0 0,-10.0000001 z"
     id="path4"
     inkscape:connector-curvature="0" />
  <path
     d="M 8,22 2,28 8,34 9.410156,32.589844 5.830078,29 16,29 16,27 5.830078,27 9.410156,23.410156 8,22 Z"
     id="path4-7-0"
     inkscape:connector-curvature="0" />
  <path
     inkscape:connector-curvature="0"
     d="M 16,34 22,28 16,22 14.589844,23.410156 18.169922,27 8,27 8,29 18.169922,29 14.589844,32.589844 16,34 Z"
     id="path4-5-4-6" />
</svg>
